<?xml version="1.0" encoding="UTF-8"?>
<svg version="1.1" xmlns="http://www.w3.org/2000/svg" width="360" height="360">
<path d="M0 0 C1.31159088 -0.00671722 2.62318176 -0.01343445 3.97451782 -0.02035522 C7.55313271 -0.03793148 11.1316518 -0.04270699 14.71030569 -0.0439868 C16.95104675 -0.0454135 19.19176385 -0.04969283 21.43249893 -0.05498123 C29.26360863 -0.07345242 37.09465049 -0.08165533 44.92578125 -0.08007812 C52.2035661 -0.07887688 59.48105433 -0.09998316 66.75876415 -0.13156545 C73.02655986 -0.15778734 79.29425902 -0.16844298 85.56210911 -0.16716731 C89.29707555 -0.16665949 93.03177795 -0.17224222 96.7666893 -0.19352341 C100.93580912 -0.21663324 105.10427092 -0.20734892 109.2734375 -0.1953125 C110.49661682 -0.20655151 111.71979614 -0.21779053 112.9800415 -0.22937012 C123.76379946 -0.15046573 132.87799567 2.69079253 140.76611328 10.29052734 C150.28433546 21.34116171 150.23198944 34.41780719 150.19970703 48.25927734 C150.20427868 49.98840538 150.20958714 51.71753161 150.21559143 53.44665527 C150.22447929 57.05403063 150.22214836 60.66118407 150.2121582 64.26855469 C150.20066256 68.86467698 150.2209111 73.46003159 150.25007534 78.05605316 C150.26852039 81.62169157 150.26812863 85.18714868 150.26243782 88.75282288 C150.26228568 90.44630512 150.26824003 92.1398005 150.28072929 93.83323669 C150.36097287 106.49209687 149.22803382 117.1987227 140.82470703 127.28271484 C134.35935133 133.5885836 126.12827593 137.5273871 117.05783081 137.49003601 C116.3608609 137.47962784 115.66389099 137.46921967 114.94580078 137.45849609 C113.4249612 137.46417821 111.90412671 137.47138953 110.38330078 137.47998047 C108.02001968 137.48412914 105.65847824 137.47827134 103.29541016 137.44506836 C92.1638781 137.31305082 85.06537181 138.58433129 75.76611328 145.29052734 C74.54059068 145.90328865 73.31425629 146.51443499 72.08642578 147.12255859 C68.97364593 150.03096401 68.98109362 152.16909778 68.72314453 156.31201172 C68.68253906 157.63168945 68.68253906 157.63168945 68.64111328 158.97802734 C68.1797051 170.38506284 65.04090963 178.27870122 56.76611328 186.29052734 C48.74315899 193.57552122 38.98033367 194.73371708 28.50830078 194.80224609 C27.47923615 194.8201973 26.45017151 194.8381485 25.3899231 194.85664368 C22.14036009 194.91032571 18.89094034 194.94450657 15.64111328 194.97802734 C13.42234352 195.01123761 11.20359257 195.04573064 8.98486328 195.08154297 C3.57874194 195.16602731 -1.82739897 195.2345531 -7.23388672 195.29052734 C-6.58378176 203.72799139 -6.58378176 203.72799139 -5.04248047 212.03662109 C-4.70893555 213.44524414 -4.70893555 213.44524414 -4.36865234 214.88232422 C-4.13855469 215.82140625 -3.90845703 216.76048828 -3.67138672 217.72802734 C-3.20779049 219.64243711 -2.74799511 221.55777232 -2.29248047 223.47412109 C-1.9878186 224.72020142 -1.9878186 224.72020142 -1.67700195 225.99145508 C-1.23388672 228.29052734 -1.23388672 228.29052734 -1.23388672 232.29052734 C-5.40915481 231.74449506 -7.76352378 230.44740804 -11.07763672 227.88818359 C-15.54758041 224.52748699 -20.07250819 221.29809661 -24.70263672 218.16162109 C-25.35530518 217.71903961 -26.00797363 217.27645813 -26.68041992 216.82046509 C-28.0211029 215.91262757 -29.36233509 215.0056006 -30.70410156 214.09936523 C-33.40026105 212.27781991 -36.09211106 210.44993886 -38.7845459 208.62289429 C-40.73646394 207.30596617 -42.69847646 206.00518939 -44.66162109 204.70507812 C-46.87276639 203.23425995 -48.96244842 201.72981563 -51.07177734 200.10644531 C-58.93228036 194.29670088 -66.37305444 194.366128 -75.73388672 194.54052734 C-89.67337577 194.66255654 -101.69485017 194.56249279 -112.23388672 184.29052734 C-118.88073194 177.0182678 -121.69633595 169.47639049 -121.63793945 159.72241211 C-121.6448027 158.90664703 -121.65166595 158.09088196 -121.65873718 157.25039673 C-121.67690665 154.57739418 -121.67318194 151.90498411 -121.66748047 149.23193359 C-121.67204695 147.35920524 -121.67735391 145.48647855 -121.68336487 143.61375427 C-121.6922766 139.6975929 -121.68989491 135.78163567 -121.67993164 131.86547852 C-121.66844359 126.86441395 -121.68866087 121.86405567 -121.71784878 116.86308384 C-121.73625632 112.99813921 -121.73590927 109.13336243 -121.73021126 105.26838493 C-121.73005861 103.42532294 -121.73605629 101.58224917 -121.74850273 99.7392292 C-121.85456878 81.46045253 -121.85456878 81.46045253 -117.23388672 74.29052734 C-116.63576172 73.23865234 -116.03763672 72.18677734 -115.42138672 71.10302734 C-110.04365077 64.18879541 -102.9024109 59.08952989 -94.23388672 57.29052734 C-92.46243052 57.20508137 -90.6880615 57.17277931 -88.91455078 57.17700195 C-87.85375305 57.17707748 -86.79295532 57.17715302 -85.70001221 57.17723083 C-83.99201447 57.18497276 -83.99201447 57.18497276 -82.24951172 57.19287109 C-81.07878113 57.19428604 -79.90805054 57.19570099 -78.70184326 57.19715881 C-74.96249843 57.20275645 -71.22321346 57.21530855 -67.48388672 57.22802734 C-64.94873133 57.23304265 -62.41357501 57.2376055 -59.87841797 57.24169922 C-53.66355379 57.25272511 -47.44872453 57.26946091 -41.23388672 57.29052734 C-41.24959717 56.56575195 -41.26530762 55.84097656 -41.28149414 55.09423828 C-41.34466815 51.74308385 -41.38313558 48.39205538 -41.42138672 45.04052734 C-41.44652344 43.90099609 -41.47166016 42.76146484 -41.49755859 41.58740234 C-41.58339588 31.51582793 -40.78350879 21.38123696 -34.23388672 13.29052734 C-33.49138672 12.27990234 -32.74888672 11.26927734 -31.98388672 10.22802734 C-23.5237575 0.37081257 -12.1288484 -0.00895779 0 0 Z " fill="#F6CD54" transform="translate(166.23388671875,63.70947265625)"/>
<path d="M0 0 C1.91407654 0.00848969 1.91407654 0.00848969 3.86682129 0.01715088 C7.23407658 0.03566702 10.60021591 0.07150411 13.96716309 0.1159668 C17.41290728 0.15713069 20.85876748 0.17520658 24.3046875 0.1953125 C31.04717944 0.23929382 37.7891504 0.30614282 44.53125 0.390625 C44.53671844 1.2902597 44.53671844 1.2902597 44.54229736 2.20806885 C44.58441393 8.5036769 44.65395954 14.79857556 44.73876953 21.09375 C44.76683166 23.43677645 44.78811885 25.77989497 44.80224609 28.12304688 C44.82388073 31.50958906 44.87063594 34.89504121 44.921875 38.28125 C44.92310364 39.31300354 44.92433228 40.34475708 44.92559814 41.40777588 C45.0565867 48.05153159 46.27527854 53.56574903 48.58001709 59.80072021 C49.53125 62.390625 49.53125 62.390625 50.03277588 64.67144775 C50.19727234 65.23877625 50.3617688 65.80610474 50.53125 66.390625 C51.19125 66.720625 51.85125 67.050625 52.53125 67.390625 C54.53125 68.390625 54.53125 68.390625 55.28125 70.515625 C55.36375 71.134375 55.44625 71.753125 55.53125 72.390625 C56.088125 72.49375 56.645 72.596875 57.21875 72.703125 C59.97144415 73.52149353 62.0745653 74.91661418 64.53125 76.390625 C67.63049677 77.37585298 70.50110448 77.53553948 73.74291992 77.58007812 C75.29924385 77.60515442 75.29924385 77.60515442 76.88700867 77.6307373 C78.00066299 77.64431274 79.11431732 77.65788818 80.26171875 77.671875 C81.98096306 77.69948914 81.98096306 77.69948914 83.73493958 77.72766113 C88.64277761 77.80640623 93.55075099 77.87430854 98.45874023 77.94287109 C102.03897234 77.99443287 105.61908033 78.05172722 109.19921875 78.109375 C110.31894577 78.12295044 111.43867279 78.13652588 112.59233093 78.1505127 C113.62042374 78.16723022 114.64851654 78.18394775 115.70776367 78.20117188 C116.61725266 78.21369995 117.52674164 78.22622803 118.46379089 78.23913574 C120.53125 78.390625 120.53125 78.390625 121.53125 79.390625 C121.83414457 84.5859254 121.03892022 89.1092872 119.65625 94.078125 C118.06560952 100.06485707 116.82047018 105.99541367 115.92578125 112.1328125 C115.53125 114.390625 115.53125 114.390625 114.53125 116.390625 C118.00784859 114.32345827 121.43651387 112.19507271 124.84375 110.015625 C125.79765625 109.40847656 126.7515625 108.80132812 127.734375 108.17578125 C129.47707937 107.06346854 131.21714891 105.94700328 132.953125 104.82421875 C133.65953125 104.37175781 134.3659375 103.91929687 135.09375 103.453125 C135.71378906 103.05222656 136.33382812 102.65132813 136.97265625 102.23828125 C138.53125 101.390625 138.53125 101.390625 140.53125 101.390625 C140.53125 100.730625 140.53125 100.070625 140.53125 99.390625 C142.6484375 97.6640625 142.6484375 97.6640625 145.40625 95.765625 C146.31117188 95.13398438 147.21609375 94.50234375 148.1484375 93.8515625 C150.53125 92.390625 150.53125 92.390625 152.53125 92.390625 C153.34822204 114.69850041 153.34822204 114.69850041 145.21875 124.640625 C137.85164587 132.49158554 129.96355352 136.29216531 119.08154297 136.82299805 C117.1457561 136.86375156 115.20961185 136.88967342 113.2734375 136.90234375 C112.24437286 136.92029495 111.21530823 136.93824615 110.15505981 136.95674133 C106.90549681 137.01042337 103.65607706 137.04460423 100.40625 137.078125 C98.18748024 137.11133527 95.96872929 137.14582829 93.75 137.18164062 C88.34387866 137.26612497 82.93773775 137.33465075 77.53125 137.390625 C78.18135495 145.82808905 78.18135495 145.82808905 79.72265625 154.13671875 C80.05620117 155.5453418 80.05620117 155.5453418 80.39648438 156.98242188 C80.62658203 157.92150391 80.85667969 158.86058594 81.09375 159.828125 C81.55734623 161.74253476 82.01714161 163.65786998 82.47265625 165.57421875 C82.77731812 166.82029907 82.77731812 166.82029907 83.08813477 168.09155273 C83.53125 170.390625 83.53125 170.390625 83.53125 174.390625 C79.35598191 173.84459272 77.00161294 172.5475057 73.6875 169.98828125 C69.21755631 166.62758465 64.69262853 163.39819427 60.0625 160.26171875 C59.40983154 159.81913727 58.75716309 159.37655579 58.0847168 158.92056274 C56.74403382 158.01272522 55.40280163 157.10569826 54.06103516 156.19946289 C51.36487567 154.37791757 48.67302566 152.55003651 45.98059082 150.72299194 C44.02867278 149.40606382 42.06666026 148.10528704 40.10351562 146.80517578 C37.89237033 145.3343576 35.8026883 143.82991329 33.69335938 142.20654297 C25.83285636 136.39679854 18.39208228 136.46622566 9.03125 136.640625 C-4.90823905 136.7626542 -16.92971345 136.66259045 -27.46875 126.390625 C-34.11559522 119.11836546 -36.93119923 111.57648814 -36.87280273 101.82250977 C-36.87966599 101.00674469 -36.88652924 100.19097961 -36.89360046 99.35049438 C-36.91176993 96.67749184 -36.90804522 94.00508177 -36.90234375 91.33203125 C-36.90691023 89.45930289 -36.91221719 87.58657621 -36.91822815 85.71385193 C-36.92713988 81.79769055 -36.92475819 77.88173332 -36.91479492 73.96557617 C-36.90330687 68.96451161 -36.92352415 63.96415333 -36.95271206 58.9631815 C-36.9711196 55.09823687 -36.97077255 51.23346009 -36.96507454 47.36848259 C-36.96492189 45.5254206 -36.97091957 43.68234683 -36.98336601 41.83932686 C-37.08943206 23.56055019 -37.08943206 23.56055019 -32.46875 16.390625 C-31.870625 15.33875 -31.2725 14.286875 -30.65625 13.203125 C-22.29295797 2.45032096 -13.2404965 -0.22271011 0 0 Z " fill="#3C68AF" transform="translate(81.46875,121.609375)"/>
<path d="M0 0 C1.31159088 -0.00671722 2.62318176 -0.01343445 3.97451782 -0.02035522 C7.55313271 -0.03793148 11.1316518 -0.04270699 14.71030569 -0.0439868 C16.95104675 -0.0454135 19.19176385 -0.04969283 21.43249893 -0.05498123 C29.26360863 -0.07345242 37.09465049 -0.08165533 44.92578125 -0.08007812 C52.2035661 -0.07887688 59.48105433 -0.09998316 66.75876415 -0.13156545 C73.02655986 -0.15778734 79.29425902 -0.16844298 85.56210911 -0.16716731 C89.29707555 -0.16665949 93.03177795 -0.17224222 96.7666893 -0.19352341 C100.93580912 -0.21663324 105.10427092 -0.20734892 109.2734375 -0.1953125 C110.49661682 -0.20655151 111.71979614 -0.21779053 112.9800415 -0.22937012 C122.06260713 -0.16291329 129.97023564 1.60221597 137.26611328 7.29052734 C137.89517578 7.76490234 138.52423828 8.23927734 139.17236328 8.72802734 C140.92228515 10.44363702 141.80136478 12.05231081 142.76611328 14.29052734 C142.28142578 13.90380859 141.79673828 13.51708984 141.29736328 13.11865234 C128.76495503 3.38193517 118.11024061 3.13928899 102.52368164 3.14526367 C101.24757019 3.14190506 99.97145874 3.13854645 98.65667725 3.13508606 C95.1924239 3.12633879 91.72819532 3.12391223 88.26393199 3.12327027 C86.09745134 3.12255579 83.93097686 3.12041424 81.76449776 3.11777306 C74.20196258 3.10855858 66.63944491 3.10443428 59.0769043 3.10522461 C52.030181 3.10582809 44.98353357 3.09521361 37.93682951 3.07948095 C31.87462725 3.06642875 25.81244992 3.06103956 19.75023371 3.06168002 C16.13413563 3.06193519 12.51810546 3.05907181 8.90202141 3.04850197 C4.88262528 3.03706928 0.86340192 3.04155332 -3.15600586 3.04760742 C-4.35648056 3.04198792 -5.55695526 3.03636841 -6.79380798 3.03057861 C-7.88291473 3.0347731 -8.97202148 3.03896759 -10.09413147 3.04328918 C-11.04403993 3.04274442 -11.99394838 3.04219965 -12.97264194 3.04163837 C-15.43436181 3.07400244 -15.43436181 3.07400244 -17.23388672 5.29052734 C-18.55388672 5.29052734 -19.87388672 5.29052734 -21.23388672 5.29052734 C-21.56388672 6.28052734 -21.89388672 7.27052734 -22.23388672 8.29052734 C-24.22454213 9.3090022 -26.22636857 10.30570712 -28.23388672 11.29052734 C-33.67999233 14.70769165 -35.07736375 17.58089689 -36.63150024 23.73257446 C-37.93045537 31.40476054 -37.71939235 39.19711536 -37.74560547 46.95849609 C-37.76247749 48.84850716 -37.78063107 50.73850717 -37.80000305 52.62849426 C-37.8472354 57.56849717 -37.87721715 62.50845527 -37.90344238 67.4486084 C-37.93338389 72.50342657 -37.97986709 77.55809073 -38.02490234 82.61279297 C-38.11063045 92.50529008 -38.1781104 102.39781915 -38.23388672 112.29052734 C-40.07371571 109.14624974 -40.47924688 106.87183945 -40.4609375 103.24658203 C-40.4606958 102.23192871 -40.4604541 101.21727539 -40.46020508 100.171875 C-40.44485718 98.58318604 -40.44485718 98.58318604 -40.42919922 96.96240234 C-40.42718506 95.98352051 -40.4251709 95.00463867 -40.4230957 93.99609375 C-40.41264232 90.34419052 -40.38471972 86.69235416 -40.35888672 83.04052734 C-40.31763672 74.87302734 -40.27638672 66.70552734 -40.23388672 58.29052734 C-58.05388672 58.29052734 -75.87388672 58.29052734 -94.23388672 58.29052734 C-94.23388672 57.96052734 -94.23388672 57.63052734 -94.23388672 57.29052734 C-76.74388672 57.29052734 -59.25388672 57.29052734 -41.23388672 57.29052734 C-41.23388672 48.71052734 -41.23388672 40.13052734 -41.23388672 31.29052734 C-37.850908 17.75861245 -37.850908 17.75861245 -34.23388672 13.29052734 C-33.49138672 12.27990234 -32.74888672 11.26927734 -31.98388672 10.22802734 C-23.5237575 0.37081257 -12.1288484 -0.00895779 0 0 Z " fill="#F4DA8C" transform="translate(166.23388671875,63.70947265625)"/>
<path d="M0 0 C1.125 3.75 1.125 3.75 0 6 C-0.12248216 8.68425987 -0.18569822 11.34427785 -0.20532227 14.02978516 C-0.21522186 14.85913071 -0.22512146 15.68847626 -0.23532104 16.54295349 C-0.26697664 19.29162719 -0.29170949 22.04031818 -0.31640625 24.7890625 C-0.33697227 26.69192969 -0.35796865 28.59479227 -0.37937927 30.49765015 C-0.43463627 35.51176225 -0.48402953 40.52591582 -0.53222656 45.5401001 C-0.58241512 50.65437522 -0.63811498 55.76858994 -0.69335938 60.8828125 C-0.80098531 70.92182343 -0.90242042 80.96088675 -1 91 C-2.83982899 87.8557224 -3.24536016 85.58131211 -3.22705078 81.95605469 C-3.22680908 80.94140137 -3.22656738 79.92674805 -3.22631836 78.88134766 C-3.21097046 77.29265869 -3.21097046 77.29265869 -3.1953125 75.671875 C-3.19329834 74.69299316 -3.19128418 73.71411133 -3.18920898 72.70556641 C-3.1787556 69.05366318 -3.15083301 65.40182682 -3.125 61.75 C-3.08375 53.5825 -3.0425 45.415 -3 37 C-20.82 37 -38.64 37 -57 37 C-57 36.67 -57 36.34 -57 36 C-39.51 36 -22.02 36 -4 36 C-4 27.42 -4 18.84 -4 10 C-2 3 -2 3 0 0 Z " fill="#CFC8A2" transform="translate(129,85)"/>
<path d="M0 0 C0.66 0 1.32 0 2 0 C2 1.32 2 2.64 2 4 C2.99 4.33 3.98 4.66 5 5 C4.53851563 5.32871094 4.07703125 5.65742188 3.6015625 5.99609375 C1.20792998 8.99105347 0.94914502 12.37296578 0.375 16.0625 C-0.90653745 23.8130749 -0.90653745 23.8130749 -2 26 C1.00259517 26.33218192 1.00259517 26.33218192 2.6875 24.5 C3.120625 24.005 3.55375 23.51 4 23 C4 23.99 4 24.98 4 26 C7.73639216 24.75453595 8.18756513 23.36595047 10 20 C10.33 20.66 10.66 21.32 11 22 C12.65 21.67 14.3 21.34 16 21 C16.33 20.01 16.66 19.02 17 18 C17.99 18 18.98 18 20 18 C20 17.01 20 16.02 20 15 C21.65 15 23.3 15 25 15 C23.71034824 16.37562854 22.37310707 17.70766393 21 19 C20.34 19 19.68 19 19 19 C19 19.66 19 20.32 19 21 C18.40832031 21.31453125 17.81664062 21.6290625 17.20703125 21.953125 C12.78812794 24.34639727 8.90119247 26.81744824 5 30 C3.78210332 30.72754003 2.55214849 31.43517507 1.3125 32.125 C-1.96166066 33.78363067 -1.96166066 33.78363067 -4 36 C-4.99 36 -5.98 36 -7 36 C-5.10954926 23.88392934 -2.78106917 11.9430686 0 0 Z " fill="#F5CD5D" transform="translate(203,202)"/>
<path d="M0 0 C3.30436752 4.95655128 3.15478003 9.83148896 3.17700195 15.64501953 C3.18357315 16.39861252 3.19014435 17.15220551 3.19691467 17.92863464 C3.21656265 20.41336179 3.22829306 22.89802864 3.23828125 25.3828125 C3.24235678 26.23606991 3.2464323 27.08932732 3.25063133 27.96844101 C3.27145883 32.48742171 3.28577322 37.00637238 3.29516602 41.52539062 C3.30620583 46.16869547 3.34058705 50.81151789 3.38033772 55.45465279 C3.40661494 59.0459984 3.41486779 62.63723113 3.41844749 66.2286644 C3.4232871 67.93891522 3.4348252 69.64916191 3.45348549 71.35931778 C3.55195466 80.98410731 3.3125357 89.13896067 -1 98 C-1.33 98 -1.66 98 -2 98 C-2.20086443 94.28400809 -2.1519437 93.22791555 0 90 C0.18464344 87.09993117 0.25214711 84.29727968 0.22705078 81.39770508 C0.22734283 80.51944565 0.22763489 79.64118622 0.22793579 78.73631287 C0.2265414 75.83061882 0.210975 72.92518055 0.1953125 70.01953125 C0.19158276 68.00599813 0.1887356 65.9924632 0.18673706 63.97892761 C0.17909753 58.67704261 0.15944626 53.37526703 0.1373291 48.07342529 C0.11687758 42.66419963 0.10773683 37.2549563 0.09765625 31.84570312 C0.07620071 21.23042065 0.04206087 10.61521942 0 0 Z " fill="#F4E1A0" transform="translate(313,86)"/>
<path d="M0 0 C6.81761894 -0.0252689 13.63522589 -0.04283244 20.45288086 -0.05493164 C22.77417451 -0.05997333 25.09546497 -0.06680651 27.41674805 -0.07543945 C30.74528795 -0.08751225 34.07378602 -0.09322979 37.40234375 -0.09765625 C38.44712387 -0.10281754 39.49190399 -0.10797882 40.56834412 -0.11329651 C41.52926468 -0.11337204 42.49018524 -0.11344757 43.48022461 -0.11352539 C44.33071884 -0.115746 45.18121307 -0.11796661 46.05747986 -0.12025452 C48 0 48 0 49 1 C49.30289974 6.19538903 48.50743165 10.71854815 47.125 15.6875 C45.34206085 22.41046985 43.9917804 29.10973617 43 36 C42.67 36 42.34 36 42 36 C41.86973771 29.6171477 41.80753311 23.4184051 43.9375 17.3125 C45.5273265 12.35598209 46.14426232 7.13442607 47 2 C31.82 2 16.64 2 1 2 C0.67 1.34 0.34 0.68 0 0 Z " fill="#687B87" transform="translate(154,200)"/>
<path d="M0 0 C0.33 0.66 0.66 1.32 1 2 C1.66 2 2.32 2 3 2 C3 2.99 3 3.98 3 5 C5.475 5.99 5.475 5.99 8 7 C7.896875 7.721875 7.79375 8.44375 7.6875 9.1875 C7.77490811 12.17149859 7.77490811 12.17149859 10 14.625 C13.51074091 17.40433656 16.77014569 18.690338 21 20 C21.99 20.33 22.98 20.66 24 21 C24 21.66 24 22.32 24 23 C40.5 23 57 23 74 23 C74 23.33 74 23.66 74 24 C66.74095422 24.07631204 59.48201263 24.12870984 52.22265625 24.16479492 C49.75516901 24.17984452 47.28770835 24.2002889 44.8203125 24.22631836 C41.26555809 24.26286926 37.71115861 24.27976518 34.15625 24.29296875 C32.51203064 24.31619453 32.51203064 24.31619453 30.83459473 24.33988953 C22.63481985 24.34167526 15.75363367 23.01698501 9 18 C7.375 15.5 7.375 15.5 6 13 C5.505 12.54625 5.01 12.0925 4.5 11.625 C1.50805639 8.38372776 0 4.3653562 0 0 Z " fill="#E2C977" transform="translate(128,176)"/>
<path d="M0 0 C0.33 0 0.66 0 1 0 C1.00364563 0.59975647 1.00729126 1.19951294 1.01104736 1.81744385 C1.05316393 8.1130519 1.12270954 14.40795056 1.20751953 20.703125 C1.23558166 23.04615145 1.25686885 25.38926997 1.27099609 27.73242188 C1.29263073 31.11896406 1.33938594 34.50441621 1.390625 37.890625 C1.39185364 38.92237854 1.39308228 39.95413208 1.39434814 41.01715088 C1.5253367 47.66090659 2.74402854 53.17512403 5.04876709 59.41009521 C5.8536838 61.60162751 6.48736023 63.72600405 7 66 C6.34 66 5.68 66 5 66 C0.41330311 57.48184863 -1.45762115 50.127453 -1.328125 40.48828125 C-1.32625183 39.5164238 -1.32437866 38.54456635 -1.32244873 37.54325867 C-1.3157682 35.50365733 -1.30193433 33.46406793 -1.28125 31.42456055 C-1.24998407 28.31091325 -1.24025979 25.19777348 -1.234375 22.08398438 C-1.22520749 20.09374385 -1.21483252 18.10350845 -1.203125 16.11328125 C-1.19887512 15.18816238 -1.19462524 14.26304352 -1.19024658 13.30989075 C-1.14015251 8.76621644 -0.92007658 4.47085306 0 0 Z " fill="#4D6691" transform="translate(125,122)"/>
<path d="M0 0 C-8.99211357 4.91414706 -17.98654096 4.63169264 -27.9375 4.6875 C-30.33609113 4.71663659 -32.73449662 4.75116461 -35.13294983 4.78999329 C-36.61531589 4.81234933 -38.09779726 4.82824818 -39.58030701 4.83683777 C-42.65711448 4.86922766 -45.05738789 5.0191293 -48 6 C-47.67 4.68 -47.34 3.36 -47 2 C-35.12 2 -23.24 2 -11 2 C-11 1.34 -11 0.68 -11 0 C-3.375 -1.125 -3.375 -1.125 0 0 Z " fill="#F2DA8E" transform="translate(299,197)"/>
<path d="M0 0 C-1.25 1.5 -1.25 1.5 -3 3 C-4.32 3 -5.64 3 -7 3 C-7.33 3.99 -7.66 4.98 -8 6 C-9.99065541 7.01847486 -11.99248185 8.01517978 -14 9 C-19.19522372 12.6366566 -21.54743356 16.18597484 -24 22 C-24.33 21.34 -24.66 20.68 -25 20 C-21.96066816 10.88200449 -15.38550078 4.32684688 -7 0 C-3.86650268 -1.04449911 -3.01031744 -0.93423645 0 0 Z " fill="#F4DF99" transform="translate(152,66)"/>
<path d="M0 0 C0.50299335 13.73451297 0.71261972 23.47799531 -9 34 C-9.33 32.68 -9.66 31.36 -10 30 C-9.01 30 -8.02 30 -7 30 C-7 29.01 -7 28.02 -7 27 C-6.34 27 -5.68 27 -5 27 C-5 26.01 -5 25.02 -5 24 C-4.34 24 -3.68 24 -3 24 C-2.93941406 22.91460937 -2.87882813 21.82921875 -2.81640625 20.7109375 C-2.73193936 19.26561514 -2.64729449 17.82030318 -2.5625 16.375 C-2.52318359 15.66214844 -2.48386719 14.94929687 -2.44335938 14.21484375 C-2.19690319 10.08196318 -1.76529947 6.07730976 -1 2 C-2.32 2.99 -3.64 3.98 -5 5 C-5.66 4.67 -6.32 4.34 -7 4 C-2.25 0 -2.25 0 0 0 Z " fill="#6A809E" transform="translate(234,214)"/>
<path d="M0 0 C0.33 0 0.66 0 1 0 C1.37236613 6.33022425 0.27709369 11.80496024 -1.24609375 17.94921875 C-1.90703792 20.62381666 -2.48299479 23.29450672 -3 26 C-2.01 26.33 -1.02 26.66 0 27 C-1.3125 28.5 -1.3125 28.5 -3 30 C-3.99 30 -4.98 30 -6 30 C-4.4139407 19.87621725 -2.73477418 9.89173641 0 0 Z " fill="#C9BD81" transform="translate(202,208)"/>
<path d="M0 0 C1.65 0 3.3 0 5 0 C3.71034824 1.37562854 2.37310707 2.70766393 1 4 C0.34 4 -0.32 4 -1 4 C-1 4.66 -1 5.32 -1 6 C-1.59167969 6.31453125 -2.18335938 6.6290625 -2.79296875 6.953125 C-7.18648236 9.33264624 -11.21154795 11.70038047 -15 15 C-15.66 14.67 -16.32 14.34 -17 14 C-16.401875 13.443125 -15.80375 12.88625 -15.1875 12.3125 C-13.0136554 10.01443571 -11.53101917 7.75583451 -10 5 C-9.67 5.66 -9.34 6.32 -9 7 C-7.35 6.67 -5.7 6.34 -4 6 C-3.67 5.01 -3.34 4.02 -3 3 C-2.01 3 -1.02 3 0 3 C0 2.01 0 1.02 0 0 Z " fill="#E8C970" transform="translate(223,217)"/>
<path d="M0 0 C0.66 0 1.32 0 2 0 C2 1.32 2 2.64 2 4 C2.99 4.33 3.98 4.66 5 5 C4.53722656 5.33 4.07445312 5.66 3.59765625 6 C1.21860138 8.97818116 0.98925254 12.33035591 0.4375 16 C-0.74956471 23.62434707 -0.74956471 23.62434707 -3 27 C-2.85915204 25.20793453 -2.71216299 23.41635083 -2.5625 21.625 C-2.48128906 20.62726563 -2.40007812 19.62953125 -2.31640625 18.6015625 C-2 16 -2 16 -1 14 C-0.76970044 11.62876754 -0.58880058 9.25258057 -0.4375 6.875 C-0.35371094 5.59367188 -0.26992187 4.31234375 -0.18359375 2.9921875 C-0.09271484 1.51105469 -0.09271484 1.51105469 0 0 Z " fill="#F1CC5D" transform="translate(203,202)"/>
<path d="M0 0 C4.95 1.65 9.9 3.3 15 5 C15 5.66 15 6.32 15 7 C17.31 7 19.62 7 22 7 C22 7.33 22 7.66 22 8 C13.65999063 8.52125059 6.8784655 6.94389708 0 2 C0 1.34 0 0.68 0 0 Z " fill="#C2B67B" transform="translate(137,192)"/>
<path d="M0 0 C1.125 3.75 1.125 3.75 0 6 C-0.15495763 8.24974161 -0.25010928 10.50371536 -0.31640625 12.7578125 C-0.33718735 13.42086395 -0.35796844 14.08391541 -0.37937927 14.76705933 C-0.44479231 16.88626694 -0.50372105 19.005599 -0.5625 21.125 C-0.60569309 22.56121081 -0.64930764 23.99740902 -0.69335938 25.43359375 C-0.80046499 28.95559594 -0.90175575 32.47773825 -1 36 C-1.33 36 -1.66 36 -2 36 C-2.04944066 31.35524041 -2.08573863 26.71063404 -2.10986328 22.06567383 C-2.11992041 20.48556856 -2.13356785 18.9054819 -2.15087891 17.32543945 C-2.17514022 15.0541525 -2.18648582 12.78311164 -2.1953125 10.51171875 C-2.20563507 9.80536789 -2.21595764 9.09901703 -2.22659302 8.3712616 C-2.22743775 4.67802208 -2.10720523 3.16080784 0 0 Z " fill="#EECE6E" transform="translate(129,85)"/>
<path d="M0 0 C0.66 0.33 1.32 0.66 2 1 C1.43410156 1.48210937 0.86820313 1.96421875 0.28515625 2.4609375 C-0.44832031 3.09257812 -1.18179688 3.72421875 -1.9375 4.375 C-2.66839844 5.00148437 -3.39929688 5.62796875 -4.15234375 6.2734375 C-6.08380906 7.87747714 -6.08380906 7.87747714 -7 10 C-10.0625 10.625 -10.0625 10.625 -13 11 C-9.41458342 6.18209648 -5.56765319 2.47041566 0 0 Z " fill="#61768C" transform="translate(210,229)"/>
<path d="M0 0 C0.66 0.33 1.32 0.66 2 1 C-1.38232729 4.58128772 -4.67246241 7.60604303 -9 10 C-11.18359375 9.6015625 -11.18359375 9.6015625 -13 9 C-11.71186658 8.16121545 -10.41936744 7.32913217 -9.125 6.5 C-8.40570313 6.0359375 -7.68640625 5.571875 -6.9453125 5.09375 C-5 4 -5 4 -3 4 C-3 3.34 -3 2.68 -3 2 C-2.01 1.34 -1.02 0.68 0 0 Z " fill="#647587" transform="translate(225,219)"/>
<path d="M0 0 C0.66 0 1.32 0 2 0 C-0.21387369 4.9812158 -3.36882737 9.066924 -8 12 C-8.66 12 -9.32 12 -10 12 C-9.67 10.68 -9.34 9.36 -9 8 C-8.401875 7.938125 -7.80375 7.87625 -7.1875 7.8125 C-4.14245324 6.68148263 -3.55509485 4.75675905 -2 2 C-1.34 2 -0.68 2 0 2 C0 1.34 0 0.68 0 0 Z " fill="#F4DC96" transform="translate(309,184)"/>
<path d="M0 0 C1.76462683 3.08809695 2 4.23312136 2 8 C-2.83256305 7.58578031 -4.82679218 5.53586014 -8 2 C-2.125 2.875 -2.125 2.875 -1 4 C-0.67 2.68 -0.34 1.36 0 0 Z " fill="#8399BF" transform="translate(163,288)"/>
<path d="M0 0 C0.99 0 1.98 0 3 0 C3 0.66 3 1.32 3 2 C4.65 2 6.3 2 8 2 C10 5.75 10 5.75 10 8 C5.56983933 6.60766379 3.08449737 4.43701135 0 1 C0 0.67 0 0.34 0 0 Z " fill="#5877B1" transform="translate(132,273)"/>
<path d="M0 0 C0.66 0.33 1.32 0.66 2 1 C0.32497468 6.86258862 -1.83212798 11.55475199 -7 15 C-7 13.68 -7 12.36 -7 11 C-6.01 11 -5.02 11 -4 11 C-4 10.01 -4 9.02 -4 8 C-3.34 8 -2.68 8 -2 8 C-2 7.01 -2 6.02 -2 5 C-1.34 5 -0.68 5 0 5 C0 3.35 0 1.7 0 0 Z " fill="#728AB7" transform="translate(231,233)"/>
<path d="M0 0 C0 1.98 0 3.96 0 6 C-2.31 6 -4.62 6 -7 6 C-5.81636731 2.44910192 -3.99368042 0 0 0 Z " fill="#3F66A0" transform="translate(233,216)"/>
<path d="M0 0 C1.54078615 2.98440561 2.86973276 6.01007758 4.125 9.125 C4.47820312 9.99382812 4.83140625 10.86265625 5.1953125 11.7578125 C6 14 6 14 6 16 C5.34 16 4.68 16 4 16 C3.525625 15.030625 3.05125 14.06125 2.5625 13.0625 C1.29806053 10.19522563 1.29806053 10.19522563 0 9 C-0.07179964 7.48071962 -0.08392007 5.95832518 -0.0625 4.4375 C-0.05347656 3.61121094 -0.04445313 2.78492188 -0.03515625 1.93359375 C-0.02355469 1.29550781 -0.01195313 0.65742188 0 0 Z " fill="#5C7186" transform="translate(126,172)"/>
<path d="M0 0 C2 1.3125 2 1.3125 4 3 C4 3.99 4 4.98 4 6 C5.32 6.33 6.64 6.66 8 7 C4.8035914 8.06546953 2.34252724 8.07427838 -1 8 C-0.835 7.05125 -0.67 6.1025 -0.5 5.125 C0.0526635 2.19831099 0.0526635 2.19831099 0 0 Z " fill="#556B97" transform="translate(133,188)"/>
<path d="M0 0 C4.55737263 0.43820891 7.57653445 0.85041169 11 4 C10.67 4.99 10.34 5.98 10 7 C8.33073546 6.02526874 6.66464358 5.04510211 5 4.0625 C4.071875 3.51722656 3.14375 2.97195313 2.1875 2.41015625 C1.465625 1.94480469 0.74375 1.47945313 0 1 C0 0.67 0 0.34 0 0 Z " fill="#5F7AAC" transform="translate(107,258)"/>
<path d="M0 0 C1.65 0 3.3 0 5 0 C3.71034824 1.37562854 2.37310707 2.70766393 1 4 C0.34 4 -0.32 4 -1 4 C-1 4.66 -1 5.32 -1 6 C-2.65 6.66 -4.3 7.32 -6 8 C-6 7.34 -6 6.68 -6 6 C-5.34 6 -4.68 6 -4 6 C-3.67 5.01 -3.34 4.02 -3 3 C-2.01 3 -1.02 3 0 3 C0 2.01 0 1.02 0 0 Z " fill="#D7C379" transform="translate(223,217)"/>
<path d="M0 0 C0.33 0 0.66 0 1 0 C1 1.98 1 3.96 1 6 C1.99 6.33 2.98 6.66 4 7 C2.6875 8.5 2.6875 8.5 1 10 C0.01 10 -0.98 10 -2 10 C-1.34 6.7 -0.68 3.4 0 0 Z " fill="#D9C884" transform="translate(198,228)"/>
<path d="M0 0 C-3.85756507 2.15305957 -6.55129785 3.39253254 -11 3 C-11 2.01 -11 1.02 -11 0 C-3.375 -1.125 -3.375 -1.125 0 0 Z " fill="#F0D789" transform="translate(299,197)"/>
<path d="M0 0 C0.66 0.33 1.32 0.66 2 1 C1.4375 2.875 1.4375 2.875 0 5 C-3.625 6.25 -3.625 6.25 -7 7 C-2.25 1.125 -2.25 1.125 0 0 Z " fill="#6D8CB9" transform="translate(60,126)"/>
<path d="M0 0 C0.99 0.33 1.98 0.66 3 1 C0.22719294 4.08089673 -2.06326356 5.68775452 -6 7 C-5.67 5.68 -5.34 4.36 -5 3 C-4.34 3 -3.68 3 -3 3 C-2.01 2.67 -1.02 2.34 0 2 C0 1.34 0 0.68 0 0 Z " fill="#EFD47A" transform="translate(242,205)"/>
<path d="M0 0 C0.66 0 1.32 0 2 0 C2 1.32 2 2.64 2 4 C2.99 4.33 3.98 4.66 5 5 C3.33333333 6.66666667 1.66666667 8.33333333 0 10 C0 6.7 0 3.4 0 0 Z " fill="#E8CA6E" transform="translate(203,202)"/>
<path d="M0 0 C0.33 0 0.66 0 1 0 C0.28571429 8.57142857 0.28571429 8.57142857 -3 12 C-3.43200679 7.24792529 -1.98489083 4.21789302 0 0 Z " fill="#F2DC9E" transform="translate(314,172)"/>
<path d="M0 0 C4.75 0.75 4.75 0.75 7 3 C7 3.66 7 4.32 7 5 C3.34683329 3.75023244 2.21934164 3.32901247 0 0 Z " fill="#6882B5" transform="translate(55,248)"/>
</svg>
