<svg xmlns="http://www.w3.org/2000/svg" xmlns:xlink="http://www.w3.org/1999/xlink" viewBox="0,0,256,256" width="400px" height="400px"><g fill="#ffffff" fill-rule="nonzero" stroke="none" stroke-width="1" stroke-linecap="butt" stroke-linejoin="miter" stroke-miterlimit="10" stroke-dasharray="" stroke-dashoffset="0" font-family="none" font-weight="none" font-size="none" text-anchor="none" style="mix-blend-mode: normal"><g transform="scale(2.56,2.56)"><path d="M30.96094,17.96094c-7.168,0 -13,5.832 -13,13v39c0,7.168 5.832,13 13,13h39c7.168,0 13,-5.832 13,-13v-39c0,-7.169 -5.832,-13 -13,-13zM30.96094,19.96094h39c6.065,0 11,4.935 11,11v39c0,6.065 -4.935,11 -11,11h-39c-6.065,0 -11,-4.935 -11,-11v-39c0,-6.065 4.935,-11 11,-11zM33.79883,22.96094c-5.976,0 -10.83789,4.86189 -10.83789,10.83789v33.32422c0,5.976 4.86189,10.83789 10.83789,10.83789h33.32422c5.976,0 10.83789,-4.86189 10.83789,-10.83789v-18.66211c0,-0.277 -0.224,-0.5 -0.5,-0.5c-0.276,0 -0.5,0.224 -0.5,0.5v18.66211c0,5.424 -4.41389,9.83789 -9.83789,9.83789h-33.32422c-5.424,0 -9.83789,-4.41389 -9.83789,-9.83789v-33.32422c0,-5.424 4.41389,-9.83789 9.83789,-9.83789h33.66211c0.276,0 0.5,-0.224 0.5,-0.5c0,-0.276 -0.224,-0.5 -0.5,-0.5zM77.46094,36.96094c-0.276,0 -0.5,0.223 -0.5,0.5v2c0,0.276 0.224,0.5 0.5,0.5c0.276,0 0.5,-0.224 0.5,-0.5v-2c0,-0.276 -0.224,-0.5 -0.5,-0.5zM49.98047,37.96094c-8.789,0 -15.93555,5.159 -15.93555,11.5c0,6.341 7.1485,11.49805 15.9375,11.49805c2.911,0 5.75905,-0.57502 8.24805,-1.66602c0.242,0.118 1.0428,0.58334 3.4668,2.40234c0.161,0.121 0.35297,0.18164 0.54297,0.18164c0.183,0 0.36644,-0.05597 0.52344,-0.16797c0.32,-0.229 0.45303,-0.63381 0.33203,-1.00781c-0.312,-0.961 -0.73,-2.37039 -1,-3.77539c2.468,-2.085 3.82422,-4.72584 3.82422,-7.46484c0,-6.341 -7.15045,-11.5 -15.93945,-11.5zM49.98242,38.96094c8.237,0 14.9375,4.711 14.9375,10.5c-0.001,2.516 -1.30959,4.957 -3.68359,6.875c-0.142,0.115 -0.20973,0.29656 -0.17773,0.47656c0.25,1.412 0.65828,2.85053 0.98828,3.89453c-2.776,-2.074 -3.51061,-2.45312 -3.84961,-2.45312c-0.092,0 -0.1537,0.02664 -0.2207,0.05664c-2.398,1.079 -5.16314,1.64844 -7.99414,1.64844c-8.236,0 -14.9375,-4.70905 -14.9375,-10.49805c0,-5.789 6.7005,-10.5 14.9375,-10.5zM77.46094,40.96094c-0.276,0 -0.5,0.224 -0.5,0.5v4c0,0.276 0.224,0.5 0.5,0.5c0.276,0 0.5,-0.224 0.5,-0.5v-4c0,-0.277 -0.224,-0.5 -0.5,-0.5z"></path></g></g></svg>